<svg xmlns="http://www.w3.org/2000/svg" xmlns:xlink="http://www.w3.org/1999/xlink" width="590" zoomAndPan="magnify" viewBox="0 0 442.5 181.5" height="242" preserveAspectRatio="xMidYMid meet" version="1.2"><defs><clipPath id="e6f2fcd969"><path d="M 6.0625 74 L 168.367188 74 L 168.367188 175.597656 L 6.0625 175.597656 Z M 6.0625 74 "/></clipPath><clipPath id="3038067622"><path d="M 6.0625 5.066406 L 157 5.066406 L 157 115 L 6.0625 115 Z M 6.0625 5.066406 "/></clipPath></defs><g id="4362fe0f50"><g clip-rule="nonzero" clip-path="url(#e6f2fcd969)"><path style=" stroke:none;fill-rule:nonzero;fill:#004aad;fill-opacity:1;" d="M 168.125 174.859375 C 167.496094 173.835938 166.730469 172.886719 165.996094 171.9375 C 152.375 154.175781 138.753906 136.421875 125.132812 118.667969 C 114.296875 104.535156 103.476562 90.386719 92.609375 76.269531 C 90.636719 73.71875 89.511719 73.582031 86.886719 75.296875 C 72.5625 84.625 58.257812 93.976562 43.941406 103.304688 C 31.84375 111.199219 19.753906 119.082031 7.632812 126.925781 C 7.058594 127.300781 6.542969 127.554688 6.0625 127.714844 L 6.0625 159.855469 L 34.398438 142.253906 C 36.359375 140.976562 38.316406 139.699219 40.277344 138.414062 C 52.566406 130.386719 64.863281 122.359375 77.160156 114.339844 C 80.382812 112.242188 81.46875 112.324219 83.304688 114.742188 C 93.597656 128.273438 103.875 141.824219 114.152344 155.371094 C 119.21875 162.050781 124.222656 168.777344 129.363281 175.398438 L 168.398438 175.398438 C 168.324219 175.226562 168.238281 175.042969 168.125 174.859375 Z M 168.125 174.859375 "/></g><g clip-rule="nonzero" clip-path="url(#3038067622)"><path style=" stroke:none;fill-rule:nonzero;fill:#004aad;fill-opacity:1;" d="M 7.425781 114.597656 C 8.855469 114.941406 10.816406 114.183594 12.207031 113.359375 C 16.195312 110.980469 20.019531 108.316406 23.914062 105.777344 C 28.699219 102.667969 33.488281 99.554688 38.277344 96.441406 L 38.277344 96.386719 C 73.902344 73.285156 92.800781 61.007812 111.6875 48.726562 C 114.007812 47.21875 115.445312 47.433594 116.9375 49.722656 C 118.867188 52.675781 120.625 55.746094 122.570312 58.683594 C 124.390625 61.421875 126.703125 61.308594 128.363281 58.5 C 129.992188 55.738281 131.585938 52.953125 133.199219 50.1875 C 140.789062 37.15625 148.394531 24.125 155.949219 11.078125 C 157.816406 7.847656 156.777344 5.691406 153.308594 5.667969 C 134.347656 5.507812 115.390625 5.5 96.4375 5.207031 C 92.75 5.148438 91.59375 8.101562 93.414062 10.832031 C 95.328125 13.695312 97.042969 16.6875 98.824219 19.640625 C 100.429688 22.304688 100.164062 23.519531 97.554688 25.21875 C 87.078125 32.058594 76.601562 38.894531 66.109375 45.71875 C 60.730469 49.210938 55.351562 52.714844 38.257812 63.757812 L 38.257812 57.613281 C 38.179688 56.59375 38.1875 55.5625 38.1875 54.542969 C 38.1875 39.835938 38.203125 25.136719 38.210938 10.433594 C 38.210938 9.859375 38.195312 9.363281 38.15625 8.925781 L 6.0625 8.925781 L 6.0625 113.535156 C 6.308594 114.039062 6.726562 114.429688 7.425781 114.597656 Z M 7.425781 114.597656 "/></g><g style="fill:#004aad;fill-opacity:1;"><g transform="translate(153.179331, 93.10072)"><path style="stroke:none" d="M 13.921875 -13.875 L 10.21875 -9.890625 L 10.21875 0 L 3.09375 0 L 3.09375 -34.609375 L 10.21875 -34.609375 L 10.21875 -18.921875 L 13.359375 -23.21875 L 22.171875 -34.609375 L 30.9375 -34.609375 L 18.65625 -19.21875 L 31.296875 0 L 22.8125 0 Z M 13.921875 -13.875 "/></g><g transform="translate(184.070366, 93.10072)"><path style="stroke:none" d="M 31.25 0 L 24.125 0 L 24.125 -14.828125 L 10.21875 -14.828125 L 10.21875 0 L 3.09375 0 L 3.09375 -34.609375 L 10.21875 -34.609375 L 10.21875 -20.578125 L 24.125 -20.578125 L 24.125 -34.609375 L 31.25 -34.609375 Z M 31.25 0 "/></g><g transform="translate(218.454464, 93.10072)"><path style="stroke:none" d="M 22.625 -7.125 L 10.125 -7.125 L 7.75 0 L 0.171875 0 L 13.046875 -34.609375 L 19.65625 -34.609375 L 32.609375 0 L 25.03125 0 Z M 12.046875 -12.90625 L 20.703125 -12.90625 L 16.34375 -25.859375 Z M 12.046875 -12.90625 "/></g><g transform="translate(251.19896, 93.10072)"><path style="stroke:none" d="M 31.234375 0 L 24.09375 0 L 10.21875 -22.765625 L 10.21875 0 L 3.09375 0 L 3.09375 -34.609375 L 10.21875 -34.609375 L 24.125 -11.78125 L 24.125 -34.609375 L 31.234375 -34.609375 Z M 31.234375 0 "/></g><g transform="translate(285.559296, 93.10072)"><path style="stroke:none" d="M 30.46875 -4.375 C 29.1875 -2.832031 27.375 -1.640625 25.03125 -0.796875 C 22.6875 0.046875 20.085938 0.46875 17.234375 0.46875 C 14.234375 0.46875 11.601562 -0.179688 9.34375 -1.484375 C 7.09375 -2.796875 5.351562 -4.691406 4.125 -7.171875 C 2.894531 -9.660156 2.265625 -12.585938 2.234375 -15.953125 L 2.234375 -18.296875 C 2.234375 -21.753906 2.816406 -24.742188 3.984375 -27.265625 C 5.148438 -29.796875 6.828125 -31.726562 9.015625 -33.0625 C 11.210938 -34.40625 13.785156 -35.078125 16.734375 -35.078125 C 20.835938 -35.078125 24.046875 -34.097656 26.359375 -32.140625 C 28.671875 -30.179688 30.039062 -27.332031 30.46875 -23.59375 L 23.53125 -23.59375 C 23.207031 -25.570312 22.503906 -27.019531 21.421875 -27.9375 C 20.335938 -28.863281 18.84375 -29.328125 16.9375 -29.328125 C 14.519531 -29.328125 12.675781 -28.414062 11.40625 -26.59375 C 10.132812 -24.769531 9.492188 -22.0625 9.484375 -18.46875 L 9.484375 -16.25 C 9.484375 -12.625 10.171875 -9.882812 11.546875 -8.03125 C 12.929688 -6.175781 14.953125 -5.25 17.609375 -5.25 C 20.285156 -5.25 22.195312 -5.820312 23.34375 -6.96875 L 23.34375 -12.921875 L 16.84375 -12.921875 L 16.84375 -18.1875 L 30.46875 -18.1875 Z M 30.46875 -4.375 "/></g><g transform="translate(318.707752, 93.10072)"><path style="stroke:none" d=""/></g><g transform="translate(330.826543, 93.10072)"><path style="stroke:none" d="M 30.046875 -9.984375 L 34.703125 -34.609375 L 41.796875 -34.609375 L 34.125 0 L 26.953125 0 L 21.3125 -23.140625 L 15.6875 0 L 8.515625 0 L 0.828125 -34.609375 L 7.9375 -34.609375 L 12.625 -10.03125 L 18.328125 -34.609375 L 24.359375 -34.609375 Z M 30.046875 -9.984375 "/></g><g transform="translate(373.384884, 93.10072)"><path style="stroke:none" d="M 23.90625 -15 L 10.21875 -15 L 10.21875 -5.734375 L 26.28125 -5.734375 L 26.28125 0 L 3.09375 0 L 3.09375 -34.609375 L 26.234375 -34.609375 L 26.234375 -28.828125 L 10.21875 -28.828125 L 10.21875 -20.578125 L 23.90625 -20.578125 Z M 23.90625 -15 "/></g><g transform="translate(400.759093, 93.10072)"><path style="stroke:none" d="M 3.09375 0 L 3.09375 -34.609375 L 15.203125 -34.609375 C 19.410156 -34.609375 22.597656 -33.800781 24.765625 -32.1875 C 26.929688 -30.582031 28.015625 -28.226562 28.015625 -25.125 C 28.015625 -23.425781 27.578125 -21.929688 26.703125 -20.640625 C 25.835938 -19.347656 24.628906 -18.398438 23.078125 -17.796875 C 24.847656 -17.359375 26.242188 -16.460938 27.265625 -15.109375 C 28.285156 -13.765625 28.796875 -12.117188 28.796875 -10.171875 C 28.796875 -6.847656 27.734375 -4.328125 25.609375 -2.609375 C 23.492188 -0.898438 20.472656 -0.03125 16.546875 0 Z M 10.21875 -15.0625 L 10.21875 -5.734375 L 16.328125 -5.734375 C 18.003906 -5.734375 19.3125 -6.128906 20.25 -6.921875 C 21.195312 -7.722656 21.671875 -8.832031 21.671875 -10.25 C 21.671875 -13.414062 20.03125 -15.019531 16.75 -15.0625 Z M 10.21875 -20.109375 L 15.5 -20.109375 C 19.09375 -20.171875 20.890625 -21.601562 20.890625 -24.40625 C 20.890625 -25.976562 20.429688 -27.109375 19.515625 -27.796875 C 18.609375 -28.484375 17.171875 -28.828125 15.203125 -28.828125 L 10.21875 -28.828125 Z M 10.21875 -20.109375 "/></g></g><g style="fill:#004aad;fill-opacity:1;"><g transform="translate(185.049758, 127.306976)"><path style="stroke:none" d="M 1.015625 -8.234375 C 1.015625 -9.835938 1.375 -11.28125 2.09375 -12.5625 C 2.820312 -13.84375 3.8125 -14.84375 5.0625 -15.5625 C 6.3125 -16.28125 7.695312 -16.640625 9.21875 -16.640625 C 11.007812 -16.640625 12.570312 -16.207031 13.90625 -15.34375 C 15.25 -14.476562 16.222656 -13.253906 16.828125 -11.671875 L 14.265625 -11.671875 C 13.804688 -12.660156 13.148438 -13.421875 12.296875 -13.953125 C 11.441406 -14.492188 10.414062 -14.765625 9.21875 -14.765625 C 8.070312 -14.765625 7.039062 -14.492188 6.125 -13.953125 C 5.21875 -13.421875 4.503906 -12.660156 3.984375 -11.671875 C 3.460938 -10.691406 3.203125 -9.546875 3.203125 -8.234375 C 3.203125 -6.921875 3.460938 -5.773438 3.984375 -4.796875 C 4.503906 -3.816406 5.21875 -3.054688 6.125 -2.515625 C 7.039062 -1.984375 8.070312 -1.71875 9.21875 -1.71875 C 10.414062 -1.71875 11.441406 -1.976562 12.296875 -2.5 C 13.148438 -3.03125 13.804688 -3.789062 14.265625 -4.78125 L 16.828125 -4.78125 C 16.222656 -3.207031 15.25 -1.992188 13.90625 -1.140625 C 12.570312 -0.285156 11.007812 0.140625 9.21875 0.140625 C 7.695312 0.140625 6.3125 -0.210938 5.0625 -0.921875 C 3.8125 -1.640625 2.820312 -2.632812 2.09375 -3.90625 C 1.375 -5.1875 1.015625 -6.628906 1.015625 -8.234375 Z M 1.015625 -8.234375 "/></g></g><g style="fill:#004aad;fill-opacity:1;"><g transform="translate(203.249579, 127.306976)"><path style="stroke:none" d="M 10.46875 0 L 6.5625 -6.71875 L 3.96875 -6.71875 L 3.96875 0 L 1.8125 0 L 1.8125 -16.4375 L 7.125 -16.4375 C 8.363281 -16.4375 9.410156 -16.222656 10.265625 -15.796875 C 11.117188 -15.367188 11.757812 -14.789062 12.1875 -14.0625 C 12.613281 -13.34375 12.828125 -12.519531 12.828125 -11.59375 C 12.828125 -10.46875 12.5 -9.472656 11.84375 -8.609375 C 11.195312 -7.742188 10.21875 -7.171875 8.90625 -6.890625 L 13.03125 0 Z M 3.96875 -8.4375 L 7.125 -8.4375 C 8.28125 -8.4375 9.148438 -8.722656 9.734375 -9.296875 C 10.316406 -9.867188 10.609375 -10.632812 10.609375 -11.59375 C 10.609375 -12.570312 10.320312 -13.328125 9.75 -13.859375 C 9.175781 -14.398438 8.300781 -14.671875 7.125 -14.671875 L 3.96875 -14.671875 Z M 3.96875 -8.4375 "/></g></g><g style="fill:#004aad;fill-opacity:1;"><g transform="translate(217.583115, 127.306976)"><path style="stroke:none" d="M 11.53125 -3.65625 L 4.359375 -3.65625 L 3.046875 0 L 0.78125 0 L 6.71875 -16.34375 L 9.203125 -16.34375 L 15.109375 0 L 12.84375 0 Z M 10.921875 -5.40625 L 7.953125 -13.703125 L 4.96875 -5.40625 Z M 10.921875 -5.40625 "/></g></g><g style="fill:#004aad;fill-opacity:1;"><g transform="translate(233.47259, 127.306976)"><path style="stroke:none" d="M 11.109375 -16.4375 L 11.109375 -14.6875 L 3.96875 -14.6875 L 3.96875 -9.140625 L 9.765625 -9.140625 L 9.765625 -7.40625 L 3.96875 -7.40625 L 3.96875 0 L 1.8125 0 L 1.8125 -16.4375 Z M 11.109375 -16.4375 "/></g></g><g style="fill:#004aad;fill-opacity:1;"><g transform="translate(245.354342, 127.306976)"><path style="stroke:none" d="M 11.9375 -16.4375 L 11.9375 -14.6875 L 7.453125 -14.6875 L 7.453125 0 L 5.3125 0 L 5.3125 -14.6875 L 0.796875 -14.6875 L 0.796875 -16.4375 Z M 11.9375 -16.4375 "/></g></g><g style="fill:#004aad;fill-opacity:1;"><g transform="translate(258.108355, 127.306976)"><path style="stroke:none" d="M 3.96875 -14.6875 L 3.96875 -9.203125 L 9.953125 -9.203125 L 9.953125 -7.421875 L 3.96875 -7.421875 L 3.96875 -1.765625 L 10.65625 -1.765625 L 10.65625 0 L 1.8125 0 L 1.8125 -16.453125 L 10.65625 -16.453125 L 10.65625 -14.6875 Z M 3.96875 -14.6875 "/></g></g><g style="fill:#004aad;fill-opacity:1;"><g transform="translate(270.202274, 127.306976)"><path style="stroke:none" d="M 6.9375 -16.4375 C 8.726562 -16.4375 10.28125 -16.101562 11.59375 -15.4375 C 12.90625 -14.769531 13.910156 -13.8125 14.609375 -12.5625 C 15.304688 -11.320312 15.65625 -9.863281 15.65625 -8.1875 C 15.65625 -6.5 15.304688 -5.035156 14.609375 -3.796875 C 13.910156 -2.566406 12.90625 -1.625 11.59375 -0.96875 C 10.28125 -0.320312 8.726562 0 6.9375 0 L 1.8125 0 L 1.8125 -16.4375 Z M 6.9375 -1.765625 C 9.050781 -1.765625 10.664062 -2.328125 11.78125 -3.453125 C 12.90625 -4.578125 13.46875 -6.15625 13.46875 -8.1875 C 13.46875 -10.226562 12.90625 -11.820312 11.78125 -12.96875 C 10.65625 -14.113281 9.039062 -14.6875 6.9375 -14.6875 L 3.96875 -14.6875 L 3.96875 -1.765625 Z M 6.9375 -1.765625 "/></g></g><g style="fill:#004aad;fill-opacity:1;"><g transform="translate(286.86973, 127.306976)"><path style="stroke:none" d=""/></g></g><g style="fill:#004aad;fill-opacity:1;"><g transform="translate(293.164226, 127.306976)"><path style="stroke:none" d="M 11.109375 -16.4375 L 11.109375 -14.6875 L 3.96875 -14.6875 L 3.96875 -9.140625 L 9.765625 -9.140625 L 9.765625 -7.40625 L 3.96875 -7.40625 L 3.96875 0 L 1.8125 0 L 1.8125 -16.4375 Z M 11.109375 -16.4375 "/></g></g><g style="fill:#004aad;fill-opacity:1;"><g transform="translate(305.045978, 127.306976)"><path style="stroke:none" d="M 9.265625 0.171875 C 7.742188 0.171875 6.351562 -0.1875 5.09375 -0.90625 C 3.832031 -1.625 2.835938 -2.625 2.109375 -3.90625 C 1.378906 -5.1875 1.015625 -6.628906 1.015625 -8.234375 C 1.015625 -9.835938 1.378906 -11.28125 2.109375 -12.5625 C 2.835938 -13.84375 3.832031 -14.835938 5.09375 -15.546875 C 6.351562 -16.265625 7.742188 -16.625 9.265625 -16.625 C 10.804688 -16.625 12.203125 -16.265625 13.453125 -15.546875 C 14.710938 -14.835938 15.703125 -13.84375 16.421875 -12.5625 C 17.148438 -11.289062 17.515625 -9.847656 17.515625 -8.234375 C 17.515625 -6.609375 17.148438 -5.160156 16.421875 -3.890625 C 15.703125 -2.617188 14.710938 -1.625 13.453125 -0.90625 C 12.203125 -0.1875 10.804688 0.171875 9.265625 0.171875 Z M 9.265625 -1.703125 C 10.410156 -1.703125 11.441406 -1.96875 12.359375 -2.5 C 13.285156 -3.03125 14.007812 -3.789062 14.53125 -4.78125 C 15.0625 -5.769531 15.328125 -6.921875 15.328125 -8.234375 C 15.328125 -9.546875 15.0625 -10.691406 14.53125 -11.671875 C 14.007812 -12.660156 13.289062 -13.421875 12.375 -13.953125 C 11.46875 -14.492188 10.429688 -14.765625 9.265625 -14.765625 C 8.097656 -14.765625 7.054688 -14.492188 6.140625 -13.953125 C 5.234375 -13.421875 4.515625 -12.660156 3.984375 -11.671875 C 3.460938 -10.691406 3.203125 -9.546875 3.203125 -8.234375 C 3.203125 -6.921875 3.460938 -5.769531 3.984375 -4.78125 C 4.515625 -3.789062 5.238281 -3.03125 6.15625 -2.5 C 7.082031 -1.96875 8.117188 -1.703125 9.265625 -1.703125 Z M 9.265625 -1.703125 "/></g></g><g style="fill:#004aad;fill-opacity:1;"><g transform="translate(323.575841, 127.306976)"><path style="stroke:none" d="M 10.46875 0 L 6.5625 -6.71875 L 3.96875 -6.71875 L 3.96875 0 L 1.8125 0 L 1.8125 -16.4375 L 7.125 -16.4375 C 8.363281 -16.4375 9.410156 -16.222656 10.265625 -15.796875 C 11.117188 -15.367188 11.757812 -14.789062 12.1875 -14.0625 C 12.613281 -13.34375 12.828125 -12.519531 12.828125 -11.59375 C 12.828125 -10.46875 12.5 -9.472656 11.84375 -8.609375 C 11.195312 -7.742188 10.21875 -7.171875 8.90625 -6.890625 L 13.03125 0 Z M 3.96875 -8.4375 L 7.125 -8.4375 C 8.28125 -8.4375 9.148438 -8.722656 9.734375 -9.296875 C 10.316406 -9.867188 10.609375 -10.632812 10.609375 -11.59375 C 10.609375 -12.570312 10.320312 -13.328125 9.75 -13.859375 C 9.175781 -14.398438 8.300781 -14.671875 7.125 -14.671875 L 3.96875 -14.671875 Z M 3.96875 -8.4375 "/></g></g><g style="fill:#004aad;fill-opacity:1;"><g transform="translate(337.909377, 127.306976)"><path style="stroke:none" d=""/></g></g><g style="fill:#004aad;fill-opacity:1;"><g transform="translate(344.203873, 127.306976)"><path style="stroke:none" d="M 13.328125 -16.4375 L 7.96875 -6.203125 L 7.96875 0 L 5.828125 0 L 5.828125 -6.203125 L 0.453125 -16.4375 L 2.828125 -16.4375 L 6.890625 -8.109375 L 10.9375 -16.4375 Z M 13.328125 -16.4375 "/></g></g><g style="fill:#004aad;fill-opacity:1;"><g transform="translate(357.971617, 127.306976)"><path style="stroke:none" d="M 9.265625 0.171875 C 7.742188 0.171875 6.351562 -0.1875 5.09375 -0.90625 C 3.832031 -1.625 2.835938 -2.625 2.109375 -3.90625 C 1.378906 -5.1875 1.015625 -6.628906 1.015625 -8.234375 C 1.015625 -9.835938 1.378906 -11.28125 2.109375 -12.5625 C 2.835938 -13.84375 3.832031 -14.835938 5.09375 -15.546875 C 6.351562 -16.265625 7.742188 -16.625 9.265625 -16.625 C 10.804688 -16.625 12.203125 -16.265625 13.453125 -15.546875 C 14.710938 -14.835938 15.703125 -13.84375 16.421875 -12.5625 C 17.148438 -11.289062 17.515625 -9.847656 17.515625 -8.234375 C 17.515625 -6.609375 17.148438 -5.160156 16.421875 -3.890625 C 15.703125 -2.617188 14.710938 -1.625 13.453125 -0.90625 C 12.203125 -0.1875 10.804688 0.171875 9.265625 0.171875 Z M 9.265625 -1.703125 C 10.410156 -1.703125 11.441406 -1.96875 12.359375 -2.5 C 13.285156 -3.03125 14.007812 -3.789062 14.53125 -4.78125 C 15.0625 -5.769531 15.328125 -6.921875 15.328125 -8.234375 C 15.328125 -9.546875 15.0625 -10.691406 14.53125 -11.671875 C 14.007812 -12.660156 13.289062 -13.421875 12.375 -13.953125 C 11.46875 -14.492188 10.429688 -14.765625 9.265625 -14.765625 C 8.097656 -14.765625 7.054688 -14.492188 6.140625 -13.953125 C 5.234375 -13.421875 4.515625 -12.660156 3.984375 -11.671875 C 3.460938 -10.691406 3.203125 -9.546875 3.203125 -8.234375 C 3.203125 -6.921875 3.460938 -5.769531 3.984375 -4.78125 C 4.515625 -3.789062 5.238281 -3.03125 6.15625 -2.5 C 7.082031 -1.96875 8.117188 -1.703125 9.265625 -1.703125 Z M 9.265625 -1.703125 "/></g></g><g style="fill:#004aad;fill-opacity:1;"><g transform="translate(376.501491, 127.306976)"><path style="stroke:none" d="M 3.90625 -16.4375 L 3.90625 -6.03125 C 3.90625 -4.570312 4.265625 -3.488281 4.984375 -2.78125 C 5.703125 -2.070312 6.695312 -1.71875 7.96875 -1.71875 C 9.226562 -1.71875 10.210938 -2.070312 10.921875 -2.78125 C 11.640625 -3.488281 12 -4.570312 12 -6.03125 L 12 -16.4375 L 14.140625 -16.4375 L 14.140625 -6.0625 C 14.140625 -4.695312 13.863281 -3.546875 13.3125 -2.609375 C 12.769531 -1.671875 12.03125 -0.972656 11.09375 -0.515625 C 10.15625 -0.0546875 9.109375 0.171875 7.953125 0.171875 C 6.785156 0.171875 5.734375 -0.0546875 4.796875 -0.515625 C 3.859375 -0.972656 3.117188 -1.671875 2.578125 -2.609375 C 2.035156 -3.546875 1.765625 -4.695312 1.765625 -6.0625 L 1.765625 -16.4375 Z M 3.90625 -16.4375 "/></g></g></g></svg>