<svg xmlns="http://www.w3.org/2000/svg" xmlns:xlink="http://www.w3.org/1999/xlink" width="135" zoomAndPan="magnify" viewBox="0 0 101.25 30.000001" height="40" preserveAspectRatio="xMidYMid meet" version="1.2"><defs><clipPath id="d1b3b4d887"><path d="M 16.640625 11 L 42.730469 11 L 42.730469 28.226562 L 16.640625 28.226562 Z M 16.640625 11 "/></clipPath><clipPath id="da6d0d3c95"><path d="M 16.640625 0.8125 L 41 0.8125 L 41 19 L 16.640625 19 Z M 16.640625 0.8125 "/></clipPath></defs><g id="fdadf144bc"><g clip-rule="nonzero" clip-path="url(#d1b3b4d887)"><path style=" stroke:none;fill-rule:nonzero;fill:#004aad;fill-opacity:1;" d="M 42.691406 28.109375 C 42.589844 27.945312 42.46875 27.792969 42.351562 27.640625 C 40.160156 24.785156 37.96875 21.929688 35.78125 19.074219 C 34.039062 16.804688 32.300781 14.527344 30.550781 12.257812 C 30.234375 11.847656 30.054688 11.828125 29.632812 12.101562 C 27.328125 13.601562 25.03125 15.105469 22.730469 16.605469 C 20.785156 17.875 18.839844 19.140625 16.890625 20.402344 C 16.800781 20.464844 16.714844 20.503906 16.640625 20.53125 L 16.640625 25.695312 L 21.195312 22.867188 C 21.511719 22.660156 21.824219 22.457031 22.140625 22.25 C 24.117188 20.960938 26.09375 19.667969 28.070312 18.378906 C 28.585938 18.042969 28.761719 18.054688 29.054688 18.445312 C 30.710938 20.621094 32.363281 22.796875 34.015625 24.976562 C 34.832031 26.050781 35.632812 27.132812 36.460938 28.195312 L 42.734375 28.195312 C 42.726562 28.167969 42.710938 28.136719 42.691406 28.109375 Z M 42.691406 28.109375 "/></g><g clip-rule="nonzero" clip-path="url(#da6d0d3c95)"><path style=" stroke:none;fill-rule:nonzero;fill:#004aad;fill-opacity:1;" d="M 16.859375 18.421875 C 17.089844 18.476562 17.402344 18.355469 17.628906 18.222656 C 18.269531 17.839844 18.882812 17.410156 19.507812 17.003906 C 20.277344 16.503906 21.046875 16.003906 21.816406 15.503906 L 21.816406 15.492188 C 27.546875 11.78125 30.582031 9.804688 33.621094 7.832031 C 33.992188 7.589844 34.222656 7.625 34.464844 7.992188 C 34.773438 8.464844 35.054688 8.960938 35.371094 9.433594 C 35.660156 9.871094 36.035156 9.855469 36.300781 9.402344 C 36.5625 8.957031 36.820312 8.511719 37.078125 8.066406 C 38.296875 5.972656 39.519531 3.875 40.734375 1.777344 C 41.035156 1.257812 40.867188 0.914062 40.308594 0.910156 C 37.261719 0.882812 34.214844 0.882812 31.167969 0.835938 C 30.574219 0.824219 30.390625 1.300781 30.683594 1.738281 C 30.988281 2.199219 31.265625 2.679688 31.550781 3.15625 C 31.808594 3.585938 31.765625 3.777344 31.347656 4.050781 C 29.664062 5.152344 27.980469 6.25 26.292969 7.347656 C 25.425781 7.910156 24.5625 8.472656 21.816406 10.25 L 21.816406 9.261719 C 21.800781 9.097656 21.804688 8.929688 21.804688 8.765625 C 21.804688 6.402344 21.804688 4.039062 21.808594 1.675781 C 21.808594 1.582031 21.804688 1.503906 21.796875 1.433594 L 16.640625 1.433594 L 16.640625 18.25 C 16.679688 18.332031 16.746094 18.394531 16.859375 18.421875 Z M 16.859375 18.421875 "/></g><g style="fill:#004aad;fill-opacity:1;"><g transform="translate(40.289802, 14.965059)"><path style="stroke:none" d="M 2.234375 -2.234375 L 1.640625 -1.59375 L 1.640625 0 L 0.5 0 L 0.5 -5.5625 L 1.640625 -5.5625 L 1.640625 -3.046875 L 2.140625 -3.734375 L 3.5625 -5.5625 L 4.984375 -5.5625 L 3 -3.09375 L 5.03125 0 L 3.671875 0 Z M 2.234375 -2.234375 "/></g><g transform="translate(45.255851, 14.965059)"><path style="stroke:none" d="M 5.03125 0 L 3.875 0 L 3.875 -2.390625 L 1.640625 -2.390625 L 1.640625 0 L 0.5 0 L 0.5 -5.5625 L 1.640625 -5.5625 L 1.640625 -3.3125 L 3.875 -3.3125 L 3.875 -5.5625 L 5.03125 -5.5625 Z M 5.03125 0 "/></g><g transform="translate(50.783447, 14.965059)"><path style="stroke:none" d="M 3.640625 -1.140625 L 1.625 -1.140625 L 1.25 0 L 0.03125 0 L 2.09375 -5.5625 L 3.15625 -5.5625 L 5.25 0 L 4.03125 0 Z M 1.9375 -2.078125 L 3.328125 -2.078125 L 2.625 -4.15625 Z M 1.9375 -2.078125 "/></g><g transform="translate(56.04746, 14.965059)"><path style="stroke:none" d="M 5.015625 0 L 3.875 0 L 1.640625 -3.65625 L 1.640625 0 L 0.5 0 L 0.5 -5.5625 L 1.640625 -5.5625 L 3.875 -1.890625 L 3.875 -5.5625 L 5.015625 -5.5625 Z M 5.015625 0 "/></g><g transform="translate(61.571235, 14.965059)"><path style="stroke:none" d="M 4.90625 -0.703125 C 4.695312 -0.453125 4.398438 -0.257812 4.015625 -0.125 C 3.640625 0.0078125 3.222656 0.078125 2.765625 0.078125 C 2.285156 0.078125 1.863281 -0.0234375 1.5 -0.234375 C 1.132812 -0.441406 0.851562 -0.742188 0.65625 -1.140625 C 0.457031 -1.546875 0.359375 -2.019531 0.359375 -2.5625 L 0.359375 -2.9375 C 0.359375 -3.5 0.453125 -3.984375 0.640625 -4.390625 C 0.828125 -4.796875 1.097656 -5.101562 1.453125 -5.3125 C 1.804688 -5.53125 2.21875 -5.640625 2.6875 -5.640625 C 3.351562 -5.640625 3.867188 -5.484375 4.234375 -5.171875 C 4.609375 -4.859375 4.832031 -4.398438 4.90625 -3.796875 L 3.78125 -3.796875 C 3.726562 -4.109375 3.613281 -4.335938 3.4375 -4.484375 C 3.269531 -4.640625 3.03125 -4.71875 2.71875 -4.71875 C 2.332031 -4.71875 2.035156 -4.570312 1.828125 -4.28125 C 1.628906 -3.988281 1.53125 -3.550781 1.53125 -2.96875 L 1.53125 -2.609375 C 1.53125 -2.023438 1.640625 -1.582031 1.859375 -1.28125 C 2.078125 -0.988281 2.398438 -0.84375 2.828125 -0.84375 C 3.265625 -0.84375 3.570312 -0.9375 3.75 -1.125 L 3.75 -2.078125 L 2.703125 -2.078125 L 2.703125 -2.921875 L 4.90625 -2.921875 Z M 4.90625 -0.703125 "/></g><g transform="translate(66.900188, 14.965059)"><path style="stroke:none" d=""/></g><g transform="translate(68.848408, 14.965059)"><path style="stroke:none" d="M 4.828125 -1.609375 L 5.578125 -5.5625 L 6.71875 -5.5625 L 5.484375 0 L 4.328125 0 L 3.421875 -3.71875 L 2.515625 0 L 1.375 0 L 0.140625 -5.5625 L 1.28125 -5.5625 L 2.03125 -1.609375 L 2.953125 -5.5625 L 3.921875 -5.5625 Z M 4.828125 -1.609375 "/></g><g transform="translate(75.690097, 14.965059)"><path style="stroke:none" d="M 3.84375 -2.40625 L 1.640625 -2.40625 L 1.640625 -0.921875 L 4.234375 -0.921875 L 4.234375 0 L 0.5 0 L 0.5 -5.5625 L 4.21875 -5.5625 L 4.21875 -4.640625 L 1.640625 -4.640625 L 1.640625 -3.3125 L 3.84375 -3.3125 Z M 3.84375 -2.40625 "/></g><g transform="translate(80.090781, 14.965059)"><path style="stroke:none" d="M 0.5 0 L 0.5 -5.5625 L 2.453125 -5.5625 C 3.117188 -5.5625 3.625 -5.429688 3.96875 -5.171875 C 4.320312 -4.921875 4.5 -4.546875 4.5 -4.046875 C 4.5 -3.765625 4.429688 -3.519531 4.296875 -3.3125 C 4.160156 -3.113281 3.96875 -2.960938 3.71875 -2.859375 C 4 -2.785156 4.21875 -2.640625 4.375 -2.421875 C 4.539062 -2.210938 4.625 -1.953125 4.625 -1.640625 C 4.625 -1.097656 4.453125 -0.6875 4.109375 -0.40625 C 3.773438 -0.132812 3.289062 0 2.65625 0 Z M 1.640625 -2.421875 L 1.640625 -0.921875 L 2.625 -0.921875 C 2.894531 -0.921875 3.101562 -0.984375 3.25 -1.109375 C 3.40625 -1.242188 3.484375 -1.421875 3.484375 -1.640625 C 3.484375 -2.148438 3.21875 -2.410156 2.6875 -2.421875 Z M 1.640625 -3.234375 L 2.484375 -3.234375 C 3.066406 -3.242188 3.359375 -3.472656 3.359375 -3.921875 C 3.359375 -4.171875 3.285156 -4.351562 3.140625 -4.46875 C 2.992188 -4.582031 2.765625 -4.640625 2.453125 -4.640625 L 1.640625 -4.640625 Z M 1.640625 -3.234375 "/></g></g><g style="fill:#004aad;fill-opacity:1;"><g transform="translate(45.413304, 20.464065)"><path style="stroke:none" d="M 0.15625 -1.328125 C 0.15625 -1.585938 0.210938 -1.816406 0.328125 -2.015625 C 0.453125 -2.222656 0.613281 -2.382812 0.8125 -2.5 C 1.007812 -2.625 1.234375 -2.6875 1.484375 -2.6875 C 1.773438 -2.6875 2.023438 -2.613281 2.234375 -2.46875 C 2.453125 -2.332031 2.609375 -2.132812 2.703125 -1.875 L 2.296875 -1.875 C 2.222656 -2.039062 2.113281 -2.164062 1.96875 -2.25 C 1.832031 -2.332031 1.671875 -2.375 1.484375 -2.375 C 1.296875 -2.375 1.128906 -2.332031 0.984375 -2.25 C 0.835938 -2.164062 0.722656 -2.039062 0.640625 -1.875 C 0.554688 -1.71875 0.515625 -1.535156 0.515625 -1.328125 C 0.515625 -1.117188 0.554688 -0.929688 0.640625 -0.765625 C 0.722656 -0.609375 0.835938 -0.488281 0.984375 -0.40625 C 1.128906 -0.320312 1.296875 -0.28125 1.484375 -0.28125 C 1.671875 -0.28125 1.832031 -0.320312 1.96875 -0.40625 C 2.113281 -0.488281 2.222656 -0.609375 2.296875 -0.765625 L 2.703125 -0.765625 C 2.609375 -0.515625 2.453125 -0.320312 2.234375 -0.1875 C 2.023438 -0.0507812 1.773438 0.015625 1.484375 0.015625 C 1.234375 0.015625 1.007812 -0.0390625 0.8125 -0.15625 C 0.613281 -0.269531 0.453125 -0.425781 0.328125 -0.625 C 0.210938 -0.832031 0.15625 -1.066406 0.15625 -1.328125 Z M 0.15625 -1.328125 "/></g></g><g style="fill:#004aad;fill-opacity:1;"><g transform="translate(48.339111, 20.464065)"><path style="stroke:none" d="M 1.6875 0 L 1.0625 -1.078125 L 0.640625 -1.078125 L 0.640625 0 L 0.296875 0 L 0.296875 -2.640625 L 1.140625 -2.640625 C 1.347656 -2.640625 1.519531 -2.601562 1.65625 -2.53125 C 1.789062 -2.46875 1.890625 -2.378906 1.953125 -2.265625 C 2.023438 -2.148438 2.0625 -2.019531 2.0625 -1.875 C 2.0625 -1.6875 2.007812 -1.519531 1.90625 -1.375 C 1.800781 -1.238281 1.644531 -1.148438 1.4375 -1.109375 L 2.09375 0 Z M 0.640625 -1.359375 L 1.140625 -1.359375 C 1.328125 -1.359375 1.46875 -1.40625 1.5625 -1.5 C 1.65625 -1.59375 1.703125 -1.71875 1.703125 -1.875 C 1.703125 -2.03125 1.65625 -2.148438 1.5625 -2.234375 C 1.476562 -2.316406 1.335938 -2.359375 1.140625 -2.359375 L 0.640625 -2.359375 Z M 0.640625 -1.359375 "/></g></g><g style="fill:#004aad;fill-opacity:1;"><g transform="translate(50.643374, 20.464065)"><path style="stroke:none" d="M 1.859375 -0.59375 L 0.703125 -0.59375 L 0.484375 0 L 0.125 0 L 1.078125 -2.625 L 1.484375 -2.625 L 2.4375 0 L 2.0625 0 Z M 1.765625 -0.875 L 1.28125 -2.203125 L 0.796875 -0.875 Z M 1.765625 -0.875 "/></g></g><g style="fill:#004aad;fill-opacity:1;"><g transform="translate(53.197769, 20.464065)"><path style="stroke:none" d="M 1.78125 -2.640625 L 1.78125 -2.359375 L 0.640625 -2.359375 L 0.640625 -1.46875 L 1.578125 -1.46875 L 1.578125 -1.1875 L 0.640625 -1.1875 L 0.640625 0 L 0.296875 0 L 0.296875 -2.640625 Z M 1.78125 -2.640625 "/></g></g><g style="fill:#004aad;fill-opacity:1;"><g transform="translate(55.107883, 20.464065)"><path style="stroke:none" d="M 1.921875 -2.640625 L 1.921875 -2.359375 L 1.203125 -2.359375 L 1.203125 0 L 0.859375 0 L 0.859375 -2.359375 L 0.125 -2.359375 L 0.125 -2.640625 Z M 1.921875 -2.640625 "/></g></g><g style="fill:#004aad;fill-opacity:1;"><g transform="translate(57.158221, 20.464065)"><path style="stroke:none" d="M 0.640625 -2.359375 L 0.640625 -1.484375 L 1.609375 -1.484375 L 1.609375 -1.203125 L 0.640625 -1.203125 L 0.640625 -0.28125 L 1.71875 -0.28125 L 1.71875 0 L 0.296875 0 L 0.296875 -2.65625 L 1.71875 -2.65625 L 1.71875 -2.359375 Z M 0.640625 -2.359375 "/></g></g><g style="fill:#004aad;fill-opacity:1;"><g transform="translate(59.102442, 20.464065)"><path style="stroke:none" d="M 1.109375 -2.640625 C 1.398438 -2.640625 1.648438 -2.585938 1.859375 -2.484375 C 2.078125 -2.378906 2.238281 -2.222656 2.34375 -2.015625 C 2.457031 -1.816406 2.515625 -1.582031 2.515625 -1.3125 C 2.515625 -1.039062 2.457031 -0.804688 2.34375 -0.609375 C 2.238281 -0.410156 2.078125 -0.257812 1.859375 -0.15625 C 1.648438 -0.0507812 1.398438 0 1.109375 0 L 0.296875 0 L 0.296875 -2.640625 Z M 1.109375 -0.28125 C 1.453125 -0.28125 1.710938 -0.367188 1.890625 -0.546875 C 2.078125 -0.734375 2.171875 -0.988281 2.171875 -1.3125 C 2.171875 -1.644531 2.078125 -1.898438 1.890625 -2.078125 C 1.710938 -2.265625 1.453125 -2.359375 1.109375 -2.359375 L 0.640625 -2.359375 L 0.640625 -0.28125 Z M 1.109375 -0.28125 "/></g></g><g style="fill:#004aad;fill-opacity:1;"><g transform="translate(61.781906, 20.464065)"><path style="stroke:none" d=""/></g></g><g style="fill:#004aad;fill-opacity:1;"><g transform="translate(62.793811, 20.464065)"><path style="stroke:none" d="M 1.78125 -2.640625 L 1.78125 -2.359375 L 0.640625 -2.359375 L 0.640625 -1.46875 L 1.578125 -1.46875 L 1.578125 -1.1875 L 0.640625 -1.1875 L 0.640625 0 L 0.296875 0 L 0.296875 -2.640625 Z M 1.78125 -2.640625 "/></g></g><g style="fill:#004aad;fill-opacity:1;"><g transform="translate(64.703924, 20.464065)"><path style="stroke:none" d="M 1.484375 0.03125 C 1.242188 0.03125 1.019531 -0.0234375 0.8125 -0.140625 C 0.613281 -0.253906 0.453125 -0.414062 0.328125 -0.625 C 0.210938 -0.832031 0.15625 -1.066406 0.15625 -1.328125 C 0.15625 -1.585938 0.210938 -1.816406 0.328125 -2.015625 C 0.453125 -2.222656 0.613281 -2.382812 0.8125 -2.5 C 1.019531 -2.613281 1.242188 -2.671875 1.484375 -2.671875 C 1.734375 -2.671875 1.957031 -2.613281 2.15625 -2.5 C 2.363281 -2.382812 2.523438 -2.222656 2.640625 -2.015625 C 2.765625 -1.816406 2.828125 -1.585938 2.828125 -1.328125 C 2.828125 -1.066406 2.765625 -0.832031 2.640625 -0.625 C 2.523438 -0.414062 2.363281 -0.253906 2.15625 -0.140625 C 1.957031 -0.0234375 1.734375 0.03125 1.484375 0.03125 Z M 1.484375 -0.265625 C 1.671875 -0.265625 1.835938 -0.304688 1.984375 -0.390625 C 2.140625 -0.484375 2.257812 -0.609375 2.34375 -0.765625 C 2.425781 -0.929688 2.46875 -1.117188 2.46875 -1.328125 C 2.46875 -1.535156 2.425781 -1.71875 2.34375 -1.875 C 2.257812 -2.039062 2.140625 -2.164062 1.984375 -2.25 C 1.835938 -2.332031 1.671875 -2.375 1.484375 -2.375 C 1.304688 -2.375 1.140625 -2.332031 0.984375 -2.25 C 0.835938 -2.164062 0.722656 -2.039062 0.640625 -1.875 C 0.554688 -1.71875 0.515625 -1.535156 0.515625 -1.328125 C 0.515625 -1.117188 0.554688 -0.929688 0.640625 -0.765625 C 0.722656 -0.609375 0.835938 -0.484375 0.984375 -0.390625 C 1.140625 -0.304688 1.304688 -0.265625 1.484375 -0.265625 Z M 1.484375 -0.265625 "/></g></g><g style="fill:#004aad;fill-opacity:1;"><g transform="translate(67.682789, 20.464065)"><path style="stroke:none" d="M 1.6875 0 L 1.0625 -1.078125 L 0.640625 -1.078125 L 0.640625 0 L 0.296875 0 L 0.296875 -2.640625 L 1.140625 -2.640625 C 1.347656 -2.640625 1.519531 -2.601562 1.65625 -2.53125 C 1.789062 -2.46875 1.890625 -2.378906 1.953125 -2.265625 C 2.023438 -2.148438 2.0625 -2.019531 2.0625 -1.875 C 2.0625 -1.6875 2.007812 -1.519531 1.90625 -1.375 C 1.800781 -1.238281 1.644531 -1.148438 1.4375 -1.109375 L 2.09375 0 Z M 0.640625 -1.359375 L 1.140625 -1.359375 C 1.328125 -1.359375 1.46875 -1.40625 1.5625 -1.5 C 1.65625 -1.59375 1.703125 -1.71875 1.703125 -1.875 C 1.703125 -2.03125 1.65625 -2.148438 1.5625 -2.234375 C 1.476562 -2.316406 1.335938 -2.359375 1.140625 -2.359375 L 0.640625 -2.359375 Z M 0.640625 -1.359375 "/></g></g><g style="fill:#004aad;fill-opacity:1;"><g transform="translate(69.987052, 20.464065)"><path style="stroke:none" d=""/></g></g><g style="fill:#004aad;fill-opacity:1;"><g transform="translate(70.998956, 20.464065)"><path style="stroke:none" d="M 2.140625 -2.640625 L 1.28125 -1 L 1.28125 0 L 0.9375 0 L 0.9375 -1 L 0.078125 -2.640625 L 0.453125 -2.640625 L 1.109375 -1.3125 L 1.765625 -2.640625 Z M 2.140625 -2.640625 "/></g></g><g style="fill:#004aad;fill-opacity:1;"><g transform="translate(73.212262, 20.464065)"><path style="stroke:none" d="M 1.484375 0.03125 C 1.242188 0.03125 1.019531 -0.0234375 0.8125 -0.140625 C 0.613281 -0.253906 0.453125 -0.414062 0.328125 -0.625 C 0.210938 -0.832031 0.15625 -1.066406 0.15625 -1.328125 C 0.15625 -1.585938 0.210938 -1.816406 0.328125 -2.015625 C 0.453125 -2.222656 0.613281 -2.382812 0.8125 -2.5 C 1.019531 -2.613281 1.242188 -2.671875 1.484375 -2.671875 C 1.734375 -2.671875 1.957031 -2.613281 2.15625 -2.5 C 2.363281 -2.382812 2.523438 -2.222656 2.640625 -2.015625 C 2.765625 -1.816406 2.828125 -1.585938 2.828125 -1.328125 C 2.828125 -1.066406 2.765625 -0.832031 2.640625 -0.625 C 2.523438 -0.414062 2.363281 -0.253906 2.15625 -0.140625 C 1.957031 -0.0234375 1.734375 0.03125 1.484375 0.03125 Z M 1.484375 -0.265625 C 1.671875 -0.265625 1.835938 -0.304688 1.984375 -0.390625 C 2.140625 -0.484375 2.257812 -0.609375 2.34375 -0.765625 C 2.425781 -0.929688 2.46875 -1.117188 2.46875 -1.328125 C 2.46875 -1.535156 2.425781 -1.71875 2.34375 -1.875 C 2.257812 -2.039062 2.140625 -2.164062 1.984375 -2.25 C 1.835938 -2.332031 1.671875 -2.375 1.484375 -2.375 C 1.304688 -2.375 1.140625 -2.332031 0.984375 -2.25 C 0.835938 -2.164062 0.722656 -2.039062 0.640625 -1.875 C 0.554688 -1.71875 0.515625 -1.535156 0.515625 -1.328125 C 0.515625 -1.117188 0.554688 -0.929688 0.640625 -0.765625 C 0.722656 -0.609375 0.835938 -0.484375 0.984375 -0.390625 C 1.140625 -0.304688 1.304688 -0.265625 1.484375 -0.265625 Z M 1.484375 -0.265625 "/></g></g><g style="fill:#004aad;fill-opacity:1;"><g transform="translate(76.191129, 20.464065)"><path style="stroke:none" d="M 0.625 -2.640625 L 0.625 -0.96875 C 0.625 -0.738281 0.679688 -0.566406 0.796875 -0.453125 C 0.910156 -0.335938 1.070312 -0.28125 1.28125 -0.28125 C 1.488281 -0.28125 1.648438 -0.335938 1.765625 -0.453125 C 1.878906 -0.566406 1.9375 -0.738281 1.9375 -0.96875 L 1.9375 -2.640625 L 2.28125 -2.640625 L 2.28125 -0.96875 C 2.28125 -0.75 2.234375 -0.5625 2.140625 -0.40625 C 2.054688 -0.257812 1.9375 -0.148438 1.78125 -0.078125 C 1.632812 -0.00390625 1.46875 0.03125 1.28125 0.03125 C 1.09375 0.03125 0.921875 -0.00390625 0.765625 -0.078125 C 0.617188 -0.148438 0.5 -0.257812 0.40625 -0.40625 C 0.320312 -0.5625 0.28125 -0.75 0.28125 -0.96875 L 0.28125 -2.640625 Z M 0.625 -2.640625 "/></g></g></g></svg>